<svg width="109" height="41" viewBox="0 0 109 41" fill="none" xmlns="http://www.w3.org/2000/svg">
<rect width="109" height="41" rx="10" fill="#070A4D"/>
<path d="M21.08 25C20.264 25 19.656 24.8 19.256 24.4C18.8613 23.9947 18.664 23.384 18.664 22.568V14.408C18.664 13.96 18.888 13.736 19.336 13.736C19.784 13.736 20.008 13.96 20.008 14.408V22.568C20.008 23 20.0773 23.2907 20.216 23.44C20.36 23.584 20.648 23.656 21.08 23.656C21.5387 23.656 21.768 23.88 21.768 24.328C21.784 24.776 21.5547 25 21.08 25ZM26.5879 25C25.5265 25 24.7372 24.744 24.2199 24.232C23.7079 23.72 23.4519 22.936 23.4519 21.88V20.024C23.4519 18.952 23.7079 18.1627 24.2199 17.656C24.7372 17.144 25.5265 16.888 26.5879 16.888H27.8999C28.9665 16.888 29.7559 17.144 30.2679 17.656C30.7799 18.168 31.0359 18.9573 31.0359 20.024V21.864C31.0359 22.9253 30.7799 23.7147 30.2679 24.232C29.7559 24.744 28.9665 25 27.8999 25H26.5879ZM24.7959 21.88C24.7959 22.568 24.9212 23.0373 25.1719 23.288C25.4225 23.5333 25.8945 23.656 26.5879 23.656H27.8999C28.5985 23.656 29.0705 23.5307 29.3159 23.28C29.5665 23.0293 29.6919 22.5573 29.6919 21.864V20.024C29.6919 19.3253 29.5665 18.8533 29.3159 18.608C29.0705 18.3573 28.5985 18.232 27.8999 18.232H26.5879C26.1239 18.232 25.7612 18.2853 25.4999 18.392C25.2439 18.4933 25.0625 18.6747 24.9559 18.936C24.8492 19.192 24.7959 19.5547 24.7959 20.024V21.88ZM36.7285 25C35.6672 25 34.8778 24.744 34.3605 24.232C33.8485 23.72 33.5925 22.936 33.5925 21.88V20.024C33.5925 18.952 33.8485 18.1627 34.3605 17.656C34.8778 17.144 35.6672 16.888 36.7285 16.888H38.0405C39.1072 16.888 39.8965 17.144 40.4085 17.656C40.9205 18.168 41.1765 18.9573 41.1765 20.024V21.864C41.1765 22.9253 40.9205 23.7147 40.4085 24.232C39.8965 24.744 39.1072 25 38.0405 25H36.7285ZM34.9365 21.88C34.9365 22.568 35.0618 23.0373 35.3125 23.288C35.5632 23.5333 36.0352 23.656 36.7285 23.656H38.0405C38.7392 23.656 39.2112 23.5307 39.4565 23.28C39.7072 23.0293 39.8325 22.5573 39.8325 21.864V20.024C39.8325 19.3253 39.7072 18.8533 39.4565 18.608C39.2112 18.3573 38.7392 18.232 38.0405 18.232H36.7285C36.2645 18.232 35.9018 18.2853 35.6405 18.392C35.3845 18.4933 35.2032 18.6747 35.0965 18.936C34.9898 19.192 34.9365 19.5547 34.9365 20.024V21.88ZM67.0254 25C65.964 25 65.1747 24.744 64.6574 24.232C64.1454 23.72 63.8894 22.936 63.8894 21.88V20.024C63.8894 18.952 64.1454 18.1627 64.6574 17.656C65.1747 17.144 65.964 16.888 67.0254 16.888H68.3374C69.404 16.888 70.1934 17.144 70.7054 17.656C71.2174 18.168 71.4734 18.9573 71.4734 20.024V21.864C71.4734 22.9253 71.2174 23.7147 70.7054 24.232C70.1934 24.744 69.404 25 68.3374 25H67.0254ZM65.2334 21.88C65.2334 22.568 65.3587 23.0373 65.6094 23.288C65.86 23.5333 66.332 23.656 67.0254 23.656H68.3374C69.036 23.656 69.508 23.5307 69.7534 23.28C70.004 23.0293 70.1294 22.5573 70.1294 21.864V20.024C70.1294 19.3253 70.004 18.8533 69.7534 18.608C69.508 18.3573 69.036 18.232 68.3374 18.232H67.0254C66.5614 18.232 66.1987 18.2853 65.9374 18.392C65.6814 18.4933 65.5 18.6747 65.3934 18.936C65.2867 19.192 65.2334 19.5547 65.2334 20.024V21.88ZM77.166 25C76.1047 25 75.3153 24.744 74.798 24.232C74.286 23.72 74.03 22.936 74.03 21.88V20.024C74.03 18.952 74.286 18.1627 74.798 17.656C75.3153 17.144 76.1047 16.888 77.166 16.888H78.478C79.5447 16.888 80.334 17.144 80.846 17.656C81.358 18.168 81.614 18.9573 81.614 20.024V21.864C81.614 22.9253 81.358 23.7147 80.846 24.232C80.334 24.744 79.5447 25 78.478 25H77.166ZM75.374 21.88C75.374 22.568 75.4993 23.0373 75.75 23.288C76.0007 23.5333 76.4727 23.656 77.166 23.656H78.478C79.1767 23.656 79.6487 23.5307 79.894 23.28C80.1447 23.0293 80.27 22.5573 80.27 21.864V20.024C80.27 19.3253 80.1447 18.8533 79.894 18.608C79.6487 18.3573 79.1767 18.232 78.478 18.232H77.166C76.702 18.232 76.3393 18.2853 76.078 18.392C75.822 18.4933 75.6407 18.6747 75.534 18.936C75.4273 19.192 75.374 19.5547 75.374 20.024V21.88ZM85.2266 25C84.7786 25 84.5546 24.776 84.5546 24.328V14.408C84.5546 13.96 84.7786 13.736 85.2266 13.736C85.6746 13.736 85.8986 13.96 85.8986 14.408V20.416L89.7066 17.144C90.048 16.8507 90.3626 16.872 90.6506 17.208C90.944 17.5493 90.9226 17.864 90.5866 18.152L87.6666 20.672L90.4586 23.848C90.7573 24.1947 90.7413 24.5093 90.4106 24.792C90.0693 25.0853 89.7493 25.064 89.4506 24.728L86.6426 21.56L85.8986 22.2V24.328C85.8986 24.776 85.6746 25 85.2266 25Z" fill="white"/>
<path d="M44.7891 25C44.3411 25 44.1171 24.776 44.1171 24.328V14.824C44.1171 14.376 44.3411 14.152 44.7891 14.152C45.2371 14.152 45.4611 14.376 45.4611 14.824V18.624L49.5411 14.408C49.8505 14.0773 50.1651 14.072 50.4851 14.392C50.8158 14.7013 50.8211 15.016 50.5011 15.336L47.1011 18.848L51.1091 23.832C51.3811 24.1893 51.3491 24.504 51.0131 24.776C50.6665 25.0587 50.3518 25.0267 50.0691 24.68L46.1571 19.832L45.4611 20.552V24.328C45.4611 24.776 45.2371 25 44.7891 25ZM54.1798 25C53.7318 25 53.5078 24.776 53.5078 24.328V14.824C53.5078 14.376 53.7318 14.152 54.1798 14.152H58.3558C59.2038 14.152 59.8544 14.376 60.3078 14.824C60.7664 15.272 60.9958 15.912 60.9958 16.744V17.176C60.9958 17.896 60.7691 18.4533 60.3158 18.848C61.1638 19.3227 61.5878 20.1893 61.5878 21.448V21.992C61.5878 22.9733 61.3264 23.72 60.8038 24.232C60.2864 24.744 59.5398 25 58.5638 25H54.1798ZM54.8518 23.656H58.5638C59.1664 23.656 59.5958 23.528 59.8518 23.272C60.1131 23.0107 60.2438 22.584 60.2438 21.992V21.448C60.2438 20.856 60.1184 20.4347 59.8678 20.184C59.6171 19.928 59.1824 19.8 58.5638 19.8H54.8518V23.656ZM54.8518 18.456H58.6438C59.0331 18.456 59.2971 18.336 59.4358 18.096C59.5798 17.856 59.6518 17.5493 59.6518 17.176V16.744C59.6518 16.28 59.5558 15.9573 59.3638 15.776C59.1718 15.5893 58.8358 15.496 58.3558 15.496H54.8518V18.456Z" fill="#A1ACE8"/>
</svg>
