<?xml version="1.0" standalone="no"?>
<!DOCTYPE svg PUBLIC "-//W3C//DTD SVG 20010904//EN"
 "http://www.w3.org/TR/2001/REC-SVG-20010904/DTD/svg10.dtd">
<svg id="icon" version="1.0" xmlns="http://www.w3.org/2000/svg"
 viewBox="0 0 512 512"
 preserveAspectRatio="xMidYMid meet">

<g transform="translate(0.000000,512.000000) scale(0.100000,-0.100000)"
fill="curentColor" stroke="none">
<path stroke="currentColor" d="M2365 5114 c-379 -39 -661 -120 -973 -278 -778 -397 -1299 -1170
-1382 -2051 -43 -464 47 -935 261 -1364 133 -267 280 -471 490 -678 407 -402
897 -641 1484 -725 118 -17 512 -17 630 0 486 69 926 256 1290 549 340 273
618 652 780 1065 121 311 170 577 170 928 0 351 -49 617 -170 928 -338 863
-1095 1464 -2025 1607 -101 15 -468 28 -555 19z m375 -515 c813 -74 1503 -619
1761 -1391 243 -726 62 -1517 -475 -2077 -233 -242 -563 -441 -889 -535 -502
-145 -1015 -100 -1485 130 -830 407 -1285 1340 -1097 2246 149 721 670 1304
1370 1533 271 89 538 120 815 94z"/>
<path stroke="currentColor" d="M2479 3827 c-124 -46 -196 -172 -169 -293 54 -239 367 -278 483 -60
28 53 30 164 3 216 -25 49 -74 98 -121 122 -49 26 -147 33 -196 15z"/>
<path stroke="currentColor" d="M2238 2807 c-26 -8 -55 -20 -65 -27 -117 -89 -154 -209 -99 -326 37
-79 101 -127 199 -148 l27 -6 0 -385 c0 -240 4 -403 11 -435 14 -64 60 -125
124 -165 l48 -30 201 0 c180 0 205 2 241 20 176 87 194 333 32 442 -26 17 -68
35 -92 39 l-45 6 0 384 c0 238 -4 402 -11 434 -17 78 -63 139 -133 175 -58 29
-63 30 -225 32 -113 2 -181 -2 -213 -10z"/>
</g>
</svg>
